# xmcd
#
# Track frame offsets: 
#        150
#        15122
#        28212
#        39922
#        51832
#        61390
#        80065
#        94521
#        101947
#        120712
#        136565
#        147961
#        164631
#        178871
#
# Disc length: 2520 seconds
#
# Revision: 0
# Processed by: cddbd v1.5.2PL0 Copyright (c) Steve Scherf et al.
# Submitted via: ExactAudioCopy v1.2
#
DISCID=b909d60e
DTITLE=Barrelhouse Chuck - Remembering the Masters
DYEAR=2016
DGENRE=Blues
TTITLE0=Homage to Pinetop Perkins (feat. Billy Flynn)
TTITLE1=How Much More (feat. Billy Flynn)
TTITLE2=Keep on Drinking (feat. Billy Flynn)
TTITLE3=I Forgot to Remember (feat. Billy Flynn)
TTITLE4=She’s Got a Thing Goin’ On
TTITLE5=Vicksburg Blues (feat. Lluis Coloma)
TTITLE6=I Just Keep on Drinking
TTITLE7=Double D Boogie (feat. Billy Flynn)
TTITLE8=Straight Alky Blues
TTITLE9=How About Me (feat. Scott Grube and Billy Flynn)
TTITLE10=How Long, How Long Blues (feat. Billy Flynn)
TTITLE11=Stockyard Blues (feat. Billy Flynn)
TTITLE12=Chicago Blues (feat. Billy Flynn)
TTITLE13=Chuckabilly Boogie (feat. Billy Flynn)
EXTD=
EXTT0=
EXTT1=
EXTT2=
EXTT3=
EXTT4=
EXTT5=
EXTT6=
EXTT7=
EXTT8=
EXTT9=
EXTT10=
EXTT11=
EXTT12=
EXTT13=
PLAYORDER=
